HIERARCHY
ROOT Pelvis
{
	OFFSET 0.000000 0.000000 0.000000
	CHANNELS 6 Xposition Yposition Zposition Xrotation Yrotation Zrotation
	JOINT LeftUpLeg_virtual
	{
		OFFSET 0.000000 0.000000 0.000000
		CHANNELS 3 Xrotation Yrotation Zrotation
		JOINT LeftUpLeg
		{
			OFFSET 8.479700 -4.795502 -0.379100
			CHANNELS 3 Xrotation Yrotation Zrotation
			JOINT LeftLeg
			{
				OFFSET 0.024144 -32.555107 0.112900
				CHANNELS 3 Xrotation Yrotation Zrotation
				JOINT LeftFoot
				{
					OFFSET -0.024144 -32.638630 -3.012600
					CHANNELS 3 Xrotation Yrotation Zrotation
					JOINT LeftToeBase
					{
						OFFSET 0.970200 -13.225400 11.864200
						CHANNELS 3 Xrotation Yrotation Zrotation
						End Site
						{
							OFFSET 0 0 0
						}
					}
				}
			}
		}
	}
	JOINT RightUpLeg_virtual
	{
		OFFSET 0.000000 0.000000 0.000000
		CHANNELS 3 Xrotation Yrotation Zrotation
		JOINT RightUpLeg
		{
			OFFSET -8.479700 -4.795502 -0.379100
			CHANNELS 3 Xrotation Yrotation Zrotation
			JOINT RightLeg
			{
				OFFSET -0.023144 -32.555092 0.112900
				CHANNELS 3 Xrotation Yrotation Zrotation
				JOINT RightFoot
				{
					OFFSET 0.023144 -32.638641 -3.012700
					CHANNELS 3 Xrotation Yrotation Zrotation
					JOINT RightToeBase
					{
						OFFSET -0.970200 -13.225400 11.864200
						CHANNELS 3 Xrotation Yrotation Zrotation
						End Site
						{
							OFFSET 0 0 0
						}
					}
				}
			}
		}
	}
	JOINT Hips_virtual
	{
		OFFSET 0.000000 0.000000 0.000000
		CHANNELS 3 Xrotation Yrotation Zrotation
		JOINT Hips
		{
			OFFSET -0.000000 -0.000000 -0.000000
			CHANNELS 3 Xrotation Yrotation Zrotation
			JOINT Spine
			{
				OFFSET 0.000000 7.722000 1.166200
				CHANNELS 3 Xrotation Yrotation Zrotation
				JOINT Spine1
				{
					OFFSET 0.000000 12.024101 0.248800
					CHANNELS 3 Xrotation Yrotation Zrotation
					JOINT Spine2
					{
						OFFSET 0.000000 11.502998 -0.491200
						CHANNELS 3 Xrotation Yrotation Zrotation
						JOINT Neck_virtual
						{
							OFFSET 0.000000 0.000000 0.000000
							CHANNELS 3 Xrotation Yrotation Zrotation
							JOINT Neck
							{
								OFFSET 0.000000 18.430702 -3.123100
								CHANNELS 3 Xrotation Yrotation Zrotation
								JOINT Head
								{
									OFFSET 0.000000 9.051102 1.034000
									CHANNELS 3 Xrotation Yrotation Zrotation
									End Site
									{
										OFFSET 0 0 0
									}
								}
							}
						}
						JOINT LeftShoulder_virtual
						{
							OFFSET 0.000000 0.000000 0.000000
							CHANNELS 3 Xrotation Yrotation Zrotation
							JOINT LeftShoulder
							{
								OFFSET 6.197800 13.665199 -4.064700
								CHANNELS 3 Xrotation Yrotation Zrotation
								JOINT LeftArm
								{
									OFFSET 7.778100 -0.187103 -1.709300
									CHANNELS 3 Xrotation Yrotation Zrotation
									JOINT LeftForeArm
									{
										OFFSET 22.049376 0.000000 0.000000
										CHANNELS 3 Xrotation Yrotation Zrotation
										JOINT LeftHand
										{
											OFFSET 23.009392 0.000000 0.000000
											CHANNELS 3 Xrotation Yrotation Zrotation
											End Site
											{
												OFFSET 0 0 0
											}
										}
									}
								}
							}
						}
						JOINT RightShoulder_virtual
						{
							OFFSET 0.000000 0.000000 0.000000
							CHANNELS 3 Xrotation Yrotation Zrotation
							JOINT RightShoulder
							{
								OFFSET -6.197800 13.665199 -4.064700
								CHANNELS 3 Xrotation Yrotation Zrotation
								JOINT RightArm
								{
									OFFSET -7.778100 -0.187103 -1.709300
									CHANNELS 3 Xrotation Yrotation Zrotation
									JOINT RightForeArm
									{
										OFFSET -22.049376 0.000000 0.000000
										CHANNELS 3 Xrotation Yrotation Zrotation
										JOINT RightHand
										{
											OFFSET -23.009392 0.000000 0.000000
											CHANNELS 3 Xrotation Yrotation Zrotation
											End Site
											{
												OFFSET 0 0 0
											}
										}
									}
								}
							}
						}
					}
				}
			}
		}
	}
}
MOTION
Frames: 5
Frame Time: 0.03333333
-83.038239 69.735138 -5.782610 0.000000 0.000000 0.000000 5.535032 -58.213333 3.071995 -44.993379 -23.108869 18.520290 41.731424 -3.483586 -9.201353 1.579704 0.146923 -18.713555 0.000000 0.000000 0.000000 5.535032 -58.213333 3.071995 -52.330136 -0.489055 -12.203601 86.331207 6.644658 -7.081779 -16.943116 -4.621657 12.712315 0.000000 0.000000 0.000000 5.535032 -58.213333 3.071995 0.000000 -0.000002 0.000000 15.973347 1.291105 -4.597858 15.662365 2.194512 -5.768869 0.000000 0.000000 0.000000 15.861045 2.321201 -5.742668 -14.884360 23.425665 6.721288 0.000000 0.000000 0.000000 15.861045 2.321201 -5.742668 -0.592727 -13.563744 6.823826 -37.598402 23.788786 -23.345655 0.137237 -73.842446 0.102678 0.000000 0.000000 0.000000 15.861045 2.321201 -5.742668 -2.118365 13.247539 13.753724 -38.399061 -0.958083 39.774193 -28.487476 69.501901 26.985592 0.000000 0.000000 0.000000 
-84.071602 69.767601 -5.649714 0.000000 0.000000 0.000000 4.066502 -58.562541 1.813079 -43.521832 -22.756765 19.407274 42.612085 -4.225704 -9.475522 0.043321 0.401343 -18.684642 0.000000 0.000000 0.000000 4.066502 -58.562541 1.813079 -51.486891 -0.055374 -12.753417 82.868172 3.551635 -7.333987 -19.717132 -6.102331 10.804478 0.000000 0.000000 0.000000 4.066502 -58.562541 1.813079 0.000000 0.000001 0.000000 15.902033 1.145762 -4.571944 15.476328 1.900086 -5.988028 0.000000 0.000000 0.000000 15.663103 2.020908 -5.953940 -15.640626 24.355951 6.043397 0.000000 0.000000 0.000000 15.663103 2.020908 -5.953940 -1.370444 -14.343334 3.032920 -38.279618 22.614249 -23.089916 0.142136 -75.187802 0.108043 0.000000 0.000000 0.000000 15.663103 2.020908 -5.953940 -2.145712 13.116407 13.287851 -38.908514 -2.796936 41.271155 -29.448569 71.167306 28.159159 0.000000 0.000000 0.000000 
-85.059364 69.813820 -5.531120 0.000000 0.000000 0.000000 2.642094 -58.801372 0.658305 -42.113321 -22.193137 20.207666 43.201705 -5.040435 -9.702939 -1.274441 0.612282 -18.584434 0.000000 0.000000 0.000000 2.642094 -58.801372 0.658305 -50.300925 0.210895 -13.420649 78.575753 1.043331 -7.671494 -21.120004 -7.155234 10.473454 0.000000 0.000000 0.000000 2.642094 -58.801372 0.658305 0.000000 0.000002 0.000000 15.825903 0.996497 -4.535608 15.281061 1.631123 -6.174519 0.000000 0.000000 0.000000 15.452408 1.743126 -6.133699 -16.471742 25.128980 5.368880 0.000000 0.000000 0.000000 15.452408 1.743126 -6.133699 -2.134515 -14.889210 -0.321571 -38.090838 21.313441 -23.421120 0.143885 -75.859646 0.109933 0.000000 0.000000 0.000000 15.452408 1.743126 -6.133699 -2.213428 12.977065 12.820907 -38.520303 -3.822274 41.682295 -30.279745 72.721912 29.181693 0.000000 0.000000 0.000000 
-86.012054 69.782661 -5.429417 0.000000 0.000000 0.000000 1.288858 -58.942251 -0.357245 -40.964954 -21.507909 20.915766 43.846891 -6.020673 -9.951082 -2.541075 0.821466 -18.403012 0.000000 0.000000 0.000000 1.288858 -58.942251 -0.357245 -48.563601 0.254873 -14.325601 72.849903 0.474446 -7.985020 -19.237211 -6.750106 12.701708 0.000000 0.000000 0.000000 1.288858 -58.942251 -0.357245 0.000000 0.000001 0.000000 15.744862 0.835488 -4.508803 15.077535 1.383976 -6.329466 0.000000 0.000000 0.000000 15.230646 1.483824 -6.284087 -17.484618 25.776253 4.725524 0.000000 0.000000 0.000000 15.230646 1.483824 -6.284087 -2.761779 -14.973149 -2.599939 -36.570643 20.101428 -24.497430 0.136243 -75.533546 0.102061 0.000000 0.000000 0.000000 15.230646 1.483824 -6.284087 -2.248354 12.848358 12.353131 -38.156264 -4.801578 41.733228 -31.405804 74.337375 30.490583 0.000000 0.000000 0.000000 
-86.923920 69.614754 -5.332766 0.000000 0.000000 0.000000 0.030747 -59.007643 -1.240662 -40.306937 -20.809151 21.566543 44.851755 -7.444168 -10.304651 -3.715132 1.031754 -18.023667 0.000000 0.000000 0.000000 0.030747 -59.007643 -1.240662 -46.473321 0.066894 -15.443746 66.105651 1.010081 -8.220897 -15.962214 -5.412478 16.167976 0.000000 0.000000 0.000000 0.030747 -59.007643 -1.240662 0.000000 0.000003 0.000000 15.658354 0.675359 -4.476246 14.866511 1.154958 -6.453891 0.000000 0.000000 0.000000 14.999271 1.239165 -6.407289 -18.318076 26.279419 4.124375 0.000000 0.000000 0.000000 14.999271 1.239165 -6.407289 -3.369798 -14.971792 -4.713515 -34.656520 18.672679 -25.510705 0.075811 -74.779145 0.043183 0.000000 0.000000 0.000000 14.999271 1.239165 -6.407289 -2.345967 12.708591 11.887825 -38.023182 -6.050311 41.672965 -33.425252 76.161008 32.694364 0.000000 0.000000 0.000000 
